<svg width="16" height="16" viewBox="0 0 16 16" fill="none" xmlns="http://www.w3.org/2000/svg">
<mask id="mask0" mask-type="alpha" maskUnits="userSpaceOnUse" x="0" y="0" width="16" height="16">
<rect width="16" height="16" fill="#C4C4C4"/>
</mask>
<g mask="url(#mask0)">
<rect x="0.75" y="0.75" width="14.5" height="14.5" rx="5.25" fill="#F19C31" stroke="#F19C31" stroke-width="1.5"/>
<path d="M11.8384 4.11081C11.7626 4.06165 11.6779 4.02789 11.5891 4.01146C11.5003 3.99504 11.4092 3.99627 11.3209 4.01509C11.2325 4.03391 11.1488 4.06995 11.0744 4.12114C11 4.17234 10.9364 4.23768 10.8873 4.31346L7.03379 10.2532L5.15449 8.51562C5.08819 8.45431 5.01046 8.40667 4.92574 8.3754C4.84102 8.34413 4.75098 8.32986 4.66074 8.33339C4.47851 8.34053 4.30657 8.41977 4.18275 8.55367C4.05894 8.68758 3.99339 8.86519 4.00053 9.04742C4.00766 9.22966 4.0869 9.4016 4.22081 9.52541L6.68833 11.8068C6.68833 11.8068 6.75916 11.8678 6.79194 11.8891C6.8677 11.9383 6.95241 11.9721 7.04124 11.9885C7.13006 12.005 7.22126 12.0037 7.30961 11.9849C7.39796 11.9661 7.48173 11.93 7.55614 11.8788C7.63056 11.8276 7.69415 11.7622 7.74328 11.6864L12.041 5.06192C12.0902 4.98617 12.124 4.90147 12.1404 4.81267C12.1568 4.72387 12.1556 4.63271 12.1368 4.54438C12.1179 4.45606 12.0819 4.37231 12.0307 4.29791C11.9795 4.22352 11.9142 4.15994 11.8384 4.11081Z" fill="white"/>
</g>
</svg>
