<svg width="12" height="12" viewBox="0 0 12 12" fill="none" xmlns="http://www.w3.org/2000/svg">
<path d="M6 12C9.2526 12 12 9.2526 12 6C12 2.7474 9.2526 0 6 0C2.7474 0 0 2.7474 0 6C0 9.2526 2.7474 12 6 12ZM6 1.2C8.6022 1.2 10.8 3.3978 10.8 6C10.8 8.6022 8.6022 10.8 6 10.8C3.3978 10.8 1.2 8.6022 1.2 6C1.2 3.3978 3.3978 1.2 6 1.2Z" fill="white"/>
<path d="M6.00002 8.99984C6.54062 8.99984 7.54863 8.89903 8.22424 8.22454L7.37583 7.37482C7.11003 7.64066 6.59523 7.79968 6.00002 7.79968C5.02441 7.79968 4.20001 6.97517 4.20001 5.99943C4.20001 5.0237 5.02441 4.19919 6.00002 4.19919C6.59583 4.19919 7.11063 4.35821 7.37583 4.62345L8.22424 3.77493C7.54923 3.09984 6.54062 2.99902 6.00002 2.99902C4.34581 2.99902 3 4.34501 3 5.99943C3 7.65386 4.34581 8.99984 6.00002 8.99984Z" fill="white"/>
</svg>
