<svg width="6" height="7" viewBox="0 0 6 7" fill="none" xmlns="http://www.w3.org/2000/svg">
<path d="M3 6.69897C4.6263 6.69897 6 5.32527 6 3.69897C6 2.07267 4.6263 0.698975 3 0.698975C1.3737 0.698975 0 2.07267 0 3.69897C0 5.32527 1.3737 6.69897 3 6.69897ZM3 1.29897C4.3011 1.29897 5.4 2.39787 5.4 3.69897C5.4 5.00007 4.3011 6.09897 3 6.09897C1.6989 6.09897 0.6 5.00007 0.6 3.69897C0.6 2.39787 1.6989 1.29897 3 1.29897Z" fill="white"/>
<path d="M3 5.19934C3.2703 5.19934 3.7743 5.14893 4.1121 4.81166L3.6879 4.38678C3.555 4.5197 3.2976 4.59922 3 4.59922C2.5122 4.59922 2.1 4.18693 2.1 3.69904C2.1 3.21114 2.5122 2.79885 3 2.79885C3.2979 2.79885 3.5553 2.87837 3.6879 3.011L4.1121 2.58671C3.7746 2.24914 3.2703 2.19873 3 2.19873C2.1729 2.19873 1.5 2.87177 1.5 3.69904C1.5 4.5263 2.1729 5.19934 3 5.19934Z" fill="white"/>
</svg>
