<svg width="85" height="23" viewBox="0 0 85 23" fill="none" xmlns="http://www.w3.org/2000/svg">
<mask id="mask0" mask-type="alpha" maskUnits="userSpaceOnUse" x="0" y="0" width="85" height="23">
<rect width="85" height="23" fill="#C4C4C4"/>
</mask>
<g mask="url(#mask0)">
<path d="M-796 151.6C-826.947 154.5 -851.343 156.397 -875.499 155.786C-913.494 155.661 -935.42 154.423 -953 149.924M409.153 -31.5405C446.396 -33.9676 483 -34 529.152 -31.5405M825.962 31.7305C858.328 37.4892 887.322 43.434 911 49.1356C939.845 57.7553 945.944 60.7279 967.5 68.6848M-432.5 111C-404.183 105.361 -408.007 106.548 -382.317 100.858L-432.5 111ZM1.00098 21.2316C29.6913 14.0454 55.2412 8.11581 84 2.08714L1.00098 21.2316Z" stroke="#F19C31" stroke-width="3"/>
</g>
</svg>
