<svg width="158" height="10" viewBox="0 0 158 10" fill="none" xmlns="http://www.w3.org/2000/svg">
<mask id="mask0" mask-type="alpha" maskUnits="userSpaceOnUse" x="0" y="0" width="158" height="10">
<rect width="158" height="10" fill="#C4C4C4"/>
</mask>
<g mask="url(#mask0)">
<path d="M157 3.6001C126.053 6.49982 101.657 8.39743 77.5007 7.78563C39.5063 7.66079 17.5797 6.42337 0 1.92416M1362.15 -179.54C1399.4 -181.968 1436 -182 1482.15 -179.54M1778.96 -116.27C1811.33 -110.511 1840.32 -104.566 1864 -98.8644C1892.84 -90.2447 1898.94 -87.2721 1920.5 -79.3152M520.5 -37C548.817 -42.6385 544.993 -41.452 570.683 -47.1419L520.5 -37ZM954.001 -126.768C982.691 -133.955 1008.24 -139.884 1037 -145.913L954.001 -126.768Z" stroke="#F19C31" stroke-width="3"/>
</g>
</svg>
