<svg width="67" height="83" viewBox="0 0 67 83" fill="none" xmlns="http://www.w3.org/2000/svg">
<path d="M2.54044 58.0234C2.13544 58.0234 1.74353 58.1455 1.40604 58.3769L0.591132 58.9358L1.04522 59.6361L1.86012 59.0772C2.06148 58.9388 2.29826 58.865 2.54044 58.8651H4.33429C4.53638 58.8655 4.73346 58.9298 4.89878 59.0494C5.0641 59.169 5.18966 59.338 5.25841 59.5335C5.32716 59.729 5.33578 59.9415 5.28309 60.1422C5.23039 60.3429 5.11895 60.5221 4.96388 60.6554L4.59815 60.9693H0V61.811H3.61634L2.1428 63.0736H0V63.9152H1.16181L1.0579 64.0036C0.854575 64.1776 0.691019 64.3955 0.578876 64.6418C0.466734 64.8882 0.408762 65.157 0.409088 65.429C0.409738 65.9203 0.599773 66.3913 0.937514 66.7387C1.27526 67.086 1.73313 67.2814 2.21071 67.282H4.00456C4.40956 67.282 4.80229 67.1599 5.13897 66.9285L5.95428 66.3696L5.50019 65.6693L4.68529 66.2282C4.48393 66.3666 4.24716 66.4404 4.00497 66.4403H2.21112C2.00903 66.4399 1.81195 66.3756 1.64663 66.256C1.48131 66.1364 1.35575 65.9674 1.287 65.7719C1.21825 65.5764 1.20963 65.3639 1.26232 65.1632C1.31502 64.9625 1.42646 64.7833 1.58153 64.65L2.43857 63.9152H6.54541V63.0736H3.42039L4.8931 61.811H6.54541V60.9693H5.7886C6.01449 60.6525 6.1363 60.2698 6.13632 59.8768C6.13578 59.3855 5.94579 58.9144 5.60804 58.5669C5.27029 58.2194 4.81235 58.024 4.3347 58.0234H2.54044Z" fill="#F19C31"/>
<circle cx="33.5" cy="33.5" r="33.5" fill="#F19C31"/>
<path d="M49.9022 81.7292L49.0171 76.2658V43.2463C49.0171 43.0445 48.9155 42.8571 48.7487 42.751C48.5817 42.6448 48.3735 42.6354 48.198 42.7256L44.8796 44.4324L41.5608 42.7256C41.5579 42.724 41.5547 42.7231 41.5518 42.7216C41.5397 42.7156 41.5273 42.7107 41.515 42.7056C41.5047 42.7014 41.4945 42.6971 41.4841 42.6937C41.4721 42.6896 41.46 42.6864 41.4478 42.6833C41.4366 42.6803 41.4255 42.6773 41.4142 42.675C41.4025 42.6727 41.3907 42.6713 41.3788 42.6697C41.367 42.6682 41.3551 42.6666 41.3432 42.6658C41.3317 42.6651 41.3204 42.6652 41.3089 42.6652C41.2965 42.6652 41.2841 42.665 41.2718 42.6659C41.2607 42.6666 41.2498 42.6681 41.2388 42.6695C41.226 42.6711 41.2134 42.6727 41.2008 42.6752C41.1903 42.6773 41.1799 42.6802 41.1696 42.6828C41.1567 42.6861 41.1438 42.6895 41.131 42.6938C41.1212 42.6971 41.1116 42.7012 41.1019 42.7051C41.089 42.7103 41.0763 42.7155 41.0637 42.7218C41.0608 42.7232 41.0578 42.7241 41.0549 42.7256L37.7365 44.4324L34.4179 42.7256C34.2587 42.6437 34.0711 42.6436 33.9118 42.7256L30.5933 44.4324L27.275 42.7256C27.1157 42.6436 26.9282 42.6436 26.7688 42.7256L23.4504 44.4324L20.1316 42.7256C19.9561 42.6353 19.7478 42.645 19.581 42.7511C19.4142 42.8572 19.3126 43.0446 19.3126 43.2463V76.2654L18.4276 81.7295C18.4003 81.8984 18.4465 82.071 18.554 82.2016C18.6615 82.3321 18.8195 82.4074 18.9858 82.4074L42.201 82.4072H49.344C49.5104 82.4072 49.6683 82.3319 49.7759 82.2013C49.8834 82.0708 49.9296 81.898 49.9022 81.7292ZM19.6538 81.243L20.3578 76.8961H34.4997C34.8123 76.8961 35.0656 76.6354 35.0656 76.3139C35.0656 75.9924 34.8123 75.7317 34.4997 75.7317H20.4445V44.1882L23.1973 45.6041C23.3566 45.686 23.5442 45.686 23.7034 45.6041L27.0219 43.8972L30.3403 45.6041C30.4995 45.686 30.6871 45.686 30.8464 45.6041L34.1649 43.8972L37.4834 45.6041C37.6427 45.686 37.8302 45.686 37.9895 45.6041L40.7418 44.1885V75.7319H37.7365C37.4238 75.7319 37.1705 75.9925 37.1705 76.314C37.1705 76.6356 37.4238 76.8962 37.7365 76.8962H40.8285L41.5156 81.1363L41.5329 81.2428L19.6538 81.243ZM42.6804 81.2427L42.5491 80.4325L41.9761 76.8961H45.2144C45.527 76.8961 45.7803 76.6355 45.7803 76.314C45.7803 75.9924 45.527 75.7318 45.2144 75.7318H41.8739V44.1884L44.6265 45.6041C44.7858 45.686 44.9734 45.686 45.1327 45.6041L47.8852 44.1883V76.314C47.8852 76.346 47.8878 76.3781 47.8929 76.4097L48.676 81.2427H42.6804Z" fill="white"/>
</svg>
