<svg width="120" height="5" viewBox="0 0 120 5" fill="none" xmlns="http://www.w3.org/2000/svg">
<mask id="mask0" mask-type="alpha" maskUnits="userSpaceOnUse" x="0" y="0" width="120" height="5">
<rect width="120" height="5" fill="#C4C4C4"/>
</mask>
<g mask="url(#mask0)">
<path d="M-1205 186.6C-1235.95 189.5 -1260.34 191.397 -1284.5 190.786C-1322.49 190.661 -1344.42 189.423 -1362 184.924M0.153198 3.45953C37.3959 1.03242 74 0.999992 120.152 3.45953M416.962 66.7305C449.328 72.4892 478.322 78.434 502 84.1356C530.845 92.7553 536.944 95.7279 558.5 103.685M-841.5 146C-813.183 140.361 -817.007 141.548 -791.317 135.858L-841.5 146ZM-407.999 56.2316C-379.309 49.0454 -353.759 43.1158 -325 37.0871L-407.999 56.2316Z" stroke="#F19C31" stroke-width="3"/>
</g>
</svg>
