<svg width="146" height="48" viewBox="0 0 146 48" fill="none" xmlns="http://www.w3.org/2000/svg">
<mask id="mask0" mask-type="alpha" maskUnits="userSpaceOnUse" x="4" y="0" width="142" height="40">
<rect x="4" width="142" height="40" fill="#C4C4C4"/>
</mask>
<g mask="url(#mask0)">
<path d="M-1617 121.6C-1647.95 124.5 -1672.34 126.397 -1696.5 125.786C-1734.49 125.661 -1756.42 124.423 -1774 119.924M-411.847 -61.5405C-374.604 -63.9676 -338 -64 -291.848 -61.5405M4.9619 1.73046C37.3284 7.48923 66.3223 13.434 90 19.1356C118.845 27.7553 124.944 30.7279 146.5 38.6848M-1253.5 81C-1225.18 75.3615 -1229.01 76.548 -1203.32 70.8581L-1253.5 81ZM-819.999 -8.76837C-791.309 -15.9546 -765.759 -21.8842 -737 -27.9129L-819.999 -8.76837Z" stroke="#F19C31" stroke-width="3"/>
</g>
</svg>
