<svg width="51" height="14" viewBox="0 0 51 14" fill="none" xmlns="http://www.w3.org/2000/svg">
<mask id="mask0" mask-type="alpha" maskUnits="userSpaceOnUse" x="0" y="0" width="51" height="14">
<rect width="51" height="14" fill="#C4C4C4"/>
</mask>
<g mask="url(#mask0)">
<path d="M-363 52.6001C-393.947 55.4998 -418.343 57.3974 -442.499 56.7856C-480.494 56.6608 -502.42 55.4234 -520 50.9242M842.153 -130.54C879.396 -132.968 916 -133 962.152 -130.54M1258.96 -67.2695C1291.33 -61.5108 1320.32 -55.566 1344 -49.8644C1372.84 -41.2447 1378.94 -38.2721 1400.5 -30.3152M0.5 12C28.8168 6.36146 24.9929 7.54804 50.6832 1.85808L0.5 12ZM434.001 -77.7684C462.691 -84.9546 488.241 -90.8842 517 -96.9129L434.001 -77.7684Z" stroke="#F19C31" stroke-width="3"/>
</g>
</svg>
