<svg width="7" height="9" viewBox="0 0 7 9" fill="none" xmlns="http://www.w3.org/2000/svg">
<path d="M2.54045 0C2.13545 0 1.74355 0.118636 1.40605 0.343636L0.591136 0.886909L1.04523 1.56764L1.86014 1.02436C2.0615 0.889802 2.29827 0.818044 2.54045 0.818182H4.33432C4.53641 0.818555 4.73349 0.8811 4.89882 0.997328C5.06414 1.11356 5.1897 1.27784 5.25845 1.46787C5.3272 1.65791 5.33581 1.8645 5.28312 2.0596C5.23043 2.2547 5.11898 2.42887 4.96391 2.55845L4.59818 2.86364H0V3.68182H3.61636L2.14282 4.90909H0V5.72727H1.16182L1.05791 5.81318C0.854581 5.98226 0.691023 6.19409 0.57888 6.43358C0.466737 6.67306 0.408765 6.93433 0.409091 7.19877C0.409741 7.67636 0.599777 8.13419 0.937521 8.47186C1.27526 8.80953 1.73314 8.99946 2.21073 9H4.00459C4.40959 9 4.80232 8.88136 5.139 8.65636L5.95432 8.11309L5.50023 7.43236L4.68532 7.97564C4.48396 8.1102 4.24718 8.18196 4.005 8.18182H2.21114C2.00905 8.18145 1.81196 8.1189 1.64664 8.00267C1.48132 7.88644 1.35576 7.72216 1.28701 7.53212C1.21825 7.34209 1.20964 7.1355 1.26233 6.9404C1.31503 6.7453 1.42647 6.57113 1.58155 6.44155L2.43859 5.72727H6.54545V4.90909H3.42041L4.89314 3.68182H6.54545V2.86364H5.78864C6.01453 2.55562 6.13634 2.18361 6.13636 1.80164C6.13582 1.32398 5.94583 0.86604 5.60808 0.528285C5.27032 0.19053 4.81239 0.000541378 4.33473 0H2.54045Z" fill="black"/>
</svg>
