<svg width="5" height="6" viewBox="0 0 5 6" fill="none" xmlns="http://www.w3.org/2000/svg">
<path d="M1.69364 0C1.42364 0 1.16236 0.079091 0.937364 0.229091L0.394091 0.591273L0.696818 1.04509L1.24009 0.682909C1.37433 0.593202 1.53218 0.545363 1.69364 0.545455H2.88955C3.02427 0.545703 3.15566 0.5874 3.26588 0.664886C3.37609 0.742371 3.4598 0.851892 3.50563 0.978583C3.55147 1.10527 3.55721 1.243 3.52208 1.37307C3.48695 1.50314 3.41266 1.61924 3.30927 1.70564L3.06545 1.90909H0V2.45455H2.41091L1.42855 3.27273H0V3.81818H0.774545L0.705273 3.87545C0.56972 3.98817 0.460682 4.12939 0.38592 4.28905C0.311158 4.44871 0.27251 4.62289 0.272727 4.79918C0.27316 5.11757 0.399851 5.4228 0.625014 5.64791C0.850176 5.87302 1.15543 5.99964 1.47382 6H2.66973C2.93973 6 3.20155 5.92091 3.426 5.77091L3.96955 5.40873L3.66682 4.95491L3.12355 5.31709C2.9893 5.4068 2.83146 5.45464 2.67 5.45455H1.47409C1.33936 5.4543 1.20798 5.4126 1.09776 5.33511C0.987544 5.25763 0.903838 5.14811 0.858004 5.02142C0.81217 4.89473 0.806427 4.757 0.841555 4.62693C0.876683 4.49686 0.950981 4.38076 1.05436 4.29436L1.62573 3.81818H4.36364V3.27273H2.28027L3.26209 2.45455H4.36364V1.90909H3.85909C4.00969 1.70375 4.09089 1.45574 4.09091 1.20109C4.09055 0.882653 3.96389 0.57736 3.73872 0.35219C3.51355 0.12702 3.20826 0.000360919 2.88982 0H1.69364Z" fill="#898989"/>
</svg>
